<?xml version="1.0" encoding="UTF-8"?>
<svg width="206.89mm" height="206.82mm" version="1.1" viewBox="0 0 733.06615 732.82107" xmlns="http://www.w3.org/2000/svg">
 <g transform="translate(14.286 11.627)">
  <rect x="-14.286" y="-11.627" width="733.07" height="732.82" ry="0" fill="#fff" fill-rule="evenodd"/>
  <g transform="matrix(.64824 0 0 .64824 429.72 -192.82)" fill="#b3b3b3">
   <path d="m-470.23 457.93v-56.918l46.972-50.897v120.4z"/>
   <path d="m-479.32 457.85v-57.255l-46.972-51.199v121.12z"/>
   <path d="m-427.29 455.36h-95.459l-73.236 74.143 76.267 84.451h95.459l71.216-83.843z"/>
   <path d="m-427.29 455.36h-47.348l2.8571 158.59h47.522l71.216-83.843z"/>
   <circle cx="-500.28" cy="535.92" r="13.89" fill-rule="evenodd"/>
   <circle transform="translate(52.023)" cx="-500.28" cy="535.92" r="13.89" fill-rule="evenodd"/>
   <circle transform="matrix(.7089 0 0 .56364 -117.94 257.6)" cx="-500.28" cy="535.92" r="13.89" fill-rule="evenodd"/>
   <circle transform="matrix(.3 0 0 .3 -355.88 370.73)" cx="-500.28" cy="535.92" r="13.89" fill-rule="evenodd"/>
   <circle transform="matrix(.3 0 0 .3 -303.6 370.98)" cx="-500.28" cy="535.92" r="13.89" fill-rule="evenodd"/>
  </g>
  <rect x="4.7251" y="6.3671" width="223.1" height="223.1" ry="5.3314" fill="#ffeb3b" fill-rule="evenodd"/>
  <path d="m45.917 149.3 40.024 14.971 75.743-61.081 32.522 20.351c2.5038 1.5668 33.616-79.445 33.616-76.491v177.08c0 2.9536-2.3778 5.3314-5.3314 5.3314h-212.43c-2.9536 0-5.3314-2.3778-5.3314-5.3314v-41.718c0-2.9536 38.282-32.605 41.192-33.111z" fill="#0cf" fill-rule="evenodd"/>
  <rect x="4.7251" y="242.43" width="223.1" height="223.1" ry="5.3314" fill="#fff" fill-rule="evenodd"/>
  <rect x="59.274" y="288.94" width="134.71" height="36.071" ry="2.1153" fill="#424242" fill-rule="evenodd"/>
  <g transform="matrix(1 0 0 .99505 -754.29 -24.12)" fill="#424242" fill-rule="evenodd">
   <path transform="matrix(.31516 .18196 -.18196 .31516 492.77 269.92)" d="m896.44-263.01c-2.762 4.7319-42.1 27.196-47.579 27.17-5.4789-0.0259-44.602-22.862-47.319-27.619-2.717-4.7579-2.5024-50.057 0.25951-54.789 2.762-4.7319 42.1-27.196 47.579-27.17 5.4789 0.0259 44.602 22.862 47.319 27.619 2.717 4.7579 2.5024 50.057-0.25951 54.789z"/>
   <rect x="785.81" y="314.8" width="37.922" height="36.071" ry="2.1153"/>
  </g>
  <path transform="matrix(.31516 .18196 -.18196 .31516 -265.56 244.06)" d="m896.44-263.01c-2.762 4.7319-42.1 27.196-47.579 27.17-5.4789-0.0259-44.602-22.862-47.319-27.619-2.717-4.7579-2.5024-50.057 0.25951-54.789 2.762-4.7319 42.1-27.196 47.579-27.17 5.4789 0.0259 44.602 22.862 47.319 27.619 2.717 4.7579 2.5024 50.057-0.25951 54.789z" fill="#424242" fill-rule="evenodd"/>
  <rect x="27.488" y="288.94" width="37.922" height="36.071" ry="2.1153" fill="#424242" fill-rule="evenodd"/>
  <path transform="matrix(.31516 .18196 -.18196 .31516 -136.98 244.06)" d="m896.44-263.01c-2.762 4.7319-42.1 27.196-47.579 27.17-5.4789-0.0259-44.602-22.862-47.319-27.619-2.717-4.7579-2.5024-50.057 0.25951-54.789 2.762-4.7319 42.1-27.196 47.579-27.17 5.4789 0.0259 44.602 22.862 47.319 27.619 2.717 4.7579 2.5024 50.057-0.25951 54.789z" fill="#424242" fill-rule="evenodd"/>
  <rect x="59.274" y="341.08" width="134.71" height="36.071" ry="2.1153" fill="#424242" fill-rule="evenodd"/>
  <g transform="matrix(1 0 0 .99505 -754.29 28.023)" fill="#424242" fill-rule="evenodd">
   <path transform="matrix(.31516 .18196 -.18196 .31516 492.77 269.92)" d="m896.44-263.01c-2.762 4.7319-42.1 27.196-47.579 27.17-5.4789-0.0259-44.602-22.862-47.319-27.619-2.717-4.7579-2.5024-50.057 0.25951-54.789 2.762-4.7319 42.1-27.196 47.579-27.17 5.4789 0.0259 44.602 22.862 47.319 27.619 2.717 4.7579 2.5024 50.057-0.25951 54.789z"/>
   <rect x="785.81" y="314.8" width="37.922" height="36.071" ry="2.1153"/>
  </g>
  <path transform="matrix(.31516 .18196 -.18196 .31516 -265.56 296.2)" d="m896.44-263.01c-2.762 4.7319-42.1 27.196-47.579 27.17-5.4789-0.0259-44.602-22.862-47.319-27.619-2.717-4.7579-2.5024-50.057 0.25951-54.789 2.762-4.7319 42.1-27.196 47.579-27.17 5.4789 0.0259 44.602 22.862 47.319 27.619 2.717 4.7579 2.5024 50.057-0.25951 54.789z" fill="#424242" fill-rule="evenodd"/>
  <rect x="27.488" y="341.08" width="37.922" height="36.071" ry="2.1153" fill="#424242" fill-rule="evenodd"/>
  <path transform="matrix(.31516 .18196 -.18196 .31516 -136.98 296.2)" d="m896.44-263.01c-2.762 4.7319-42.1 27.196-47.579 27.17-5.4789-0.0259-44.602-22.862-47.319-27.619-2.717-4.7579-2.5024-50.057 0.25951-54.789 2.762-4.7319 42.1-27.196 47.579-27.17 5.4789 0.0259 44.602 22.862 47.319 27.619 2.717 4.7579 2.5024 50.057-0.25951 54.789z" fill="#424242" fill-rule="evenodd"/>
  <rect x="59.274" y="390.37" width="134.71" height="36.071" ry="2.1153" fill="#424242" fill-rule="evenodd"/>
  <g transform="matrix(1 0 0 .99505 -754.29 77.308)" fill="#424242" fill-rule="evenodd">
   <path transform="matrix(.31516 .18196 -.18196 .31516 492.77 269.92)" d="m896.44-263.01c-2.762 4.7319-42.1 27.196-47.579 27.17-5.4789-0.0259-44.602-22.862-47.319-27.619-2.717-4.7579-2.5024-50.057 0.25951-54.789 2.762-4.7319 42.1-27.196 47.579-27.17 5.4789 0.0259 44.602 22.862 47.319 27.619 2.717 4.7579 2.5024 50.057-0.25951 54.789z"/>
   <rect x="785.81" y="314.8" width="37.922" height="36.071" ry="2.1153"/>
  </g>
  <path transform="matrix(.31516 .18196 -.18196 .31516 -265.56 345.49)" d="m896.44-263.01c-2.762 4.7319-42.1 27.196-47.579 27.17-5.4789-0.0259-44.602-22.862-47.319-27.619-2.717-4.7579-2.5024-50.057 0.25951-54.789 2.762-4.7319 42.1-27.196 47.579-27.17 5.4789 0.0259 44.602 22.862 47.319 27.619 2.717 4.7579 2.5024 50.057-0.25951 54.789z" fill="#424242" fill-rule="evenodd"/>
  <rect x="27.488" y="390.37" width="37.922" height="36.071" ry="2.1153" fill="#424242" fill-rule="evenodd"/>
  <path transform="matrix(.31516 .18196 -.18196 .31516 -136.98 345.49)" d="m896.44-263.01c-2.762 4.7319-42.1 27.196-47.579 27.17-5.4789-0.0259-44.602-22.862-47.319-27.619-2.717-4.7579-2.5024-50.057 0.25951-54.789 2.762-4.7319 42.1-27.196 47.579-27.17 5.4789 0.0259 44.602 22.862 47.319 27.619 2.717 4.7579 2.5024 50.057-0.25951 54.789z" fill="#424242" fill-rule="evenodd"/>
  <rect x="4.7251" y="479.23" width="223.1" height="223.1" ry="5.3314" fill="#ffeb3b" fill-rule="evenodd"/>
  <rect x="241.52" y="6.3671" width="223.1" height="223.1" ry="5.3314" fill="#fff" fill-rule="evenodd"/>
  <rect x="243" y="243.9" width="223.1" height="223.1" ry="5.3314" fill="#ffeb3b" fill-rule="evenodd"/>
  <path d="m353.13 276.58c-39.489-0.0944-75.475 33.964-77.326 73.47-2.8661 36.545 22.998 73.186 58.829 81.787 35.319 9.5411 76.04-8.926 91.198-42.458 16.152-33.235 5.35-77.406-25.612-98.171-13.628-9.6804-30.381-14.851-47.089-14.628z" fill="#fff" fill-rule="evenodd"/>
  <rect x="241.52" y="479.23" width="223.1" height="223.1" ry="5.3314" fill="#fff" fill-rule="evenodd"/>
  <rect x="477.59" y="6.3671" width="223.1" height="223.1" ry="5.3314" fill="#ffeb3b" fill-rule="evenodd"/>
  <g transform="translate(-759.67 -11.934)" fill="#fff" fill-rule="evenodd">
   <rect x="1269.4" y="138.7" width="27.677" height="74.868" ry="4.1161"/>
   <rect x="1308.2" y="108.39" width="27.677" height="105.17" ry="5.7822"/>
   <rect x="1346.9" y="89.571" width="27.677" height="123.99" ry="5.0491"/>
   <rect x="1388.4" y="54.215" width="27.677" height="159.35" ry="4.9726"/>
  </g>
  <rect x="477.59" y="242.43" width="223.1" height="223.1" ry="5.3314" fill="#fff" fill-rule="evenodd"/>
  <rect x="477.59" y="479.23" width="223.1" height="223.1" ry="5.3314" fill="#ffeb3b" fill-rule="evenodd"/>
  <rect x="516.34" y="118.18" width="27.677" height="74.868" ry="4.1161" fill="#3f51b5" fill-rule="evenodd"/>
  <rect x="555.09" y="87.871" width="27.677" height="105.17" ry="5.7822" fill="#3f51b5" fill-rule="evenodd"/>
  <rect x="593.84" y="69.051" width="27.677" height="123.99" ry="5.0491" fill="#3f51b5" fill-rule="evenodd"/>
  <circle cx="354.55" cy="355.45" r="72.857" fill="#f06292" fill-rule="evenodd"/>
  <path d="m370.65 426.58c-34.484 6.8905-70.798-11.52-83.8-44.194-13.002-32.673-0.8114-69.971 28.978-88.658 29.789-18.687 68.675-13.429 92.432 12.497l-52.287 48.864z" fill="#d32f2f" fill-rule="evenodd"/>
  <path d="m368.82 426.9a72.857 72.857 0 0 1 -81.97 -44.506 72.857 72.857 0 0 1 28.978 -88.658 72.857 72.857 0 0 1 92.432 12.497l-53.716 49.222z" fill="#e53935" fill-rule="evenodd"/>
  <path d="m333.34 425.24c-29.025-9.4868-50.483-36.602-51.602-67.118s16.91-58.491 45.162-70.078 60.732-4.3268 81.362 18.187l-52.823 49.043z" fill="#d84315" fill-rule="evenodd"/>
  <path d="m331.91 424.7a72.857 72.857 0 0 1 -50.173 -66.582 72.857 72.857 0 0 1 45.162 -70.078 72.857 72.857 0 0 1 81.362 18.187l-53.716 49.222z" fill="#f4511e" fill-rule="evenodd"/>
  <path d="m291.84 318.36a72.857 72.857 0 0 1 67.54 -35.61 72.857 72.857 0 0 1 62.237 44.229l-67.065 28.468z" fill="#cddc39" fill-rule="evenodd"/>
  <path d="m291.84 318.36a72.857 72.857 0 0 1 67.54 -35.61 72.857 72.857 0 0 1 62.237 44.229l-67.065 28.468z" fill="#cddc39" fill-rule="evenodd"/>
  <path d="m291.84 318.36a72.857 72.857 0 0 1 67.54 -35.61 72.857 72.857 0 0 1 62.237 44.229l-67.065 28.468z" fill="#cddc39" fill-rule="evenodd"/>
  <path d="m291.84 318.36a72.857 72.857 0 0 1 67.54 -35.61 72.857 72.857 0 0 1 62.237 44.229l-67.065 28.468z" fill="#cddc39" fill-rule="evenodd"/>
  <path d="m291.84 318.36a72.857 72.857 0 0 1 67.54 -35.61 72.857 72.857 0 0 1 62.237 44.229l-67.065 28.468z" fill="#cddc39" fill-rule="evenodd"/>
  <path d="m291.84 318.36a72.857 72.857 0 0 1 67.54 -35.61 72.857 72.857 0 0 1 62.237 44.229l-67.065 28.468z" fill="#cddc39" fill-rule="evenodd"/>
  <path d="m291.84 318.36a72.857 72.857 0 0 1 67.54 -35.61 72.857 72.857 0 0 1 62.237 44.229l-67.065 28.468z" fill="#cddc39" fill-rule="evenodd"/>
  <path d="m291.84 318.36a72.857 72.857 0 0 1 67.54 -35.61 72.857 72.857 0 0 1 62.237 44.229l-67.065 28.468z" fill="#cddc39" fill-rule="evenodd"/>
  <path d="m291.84 318.36a72.857 72.857 0 0 1 67.54 -35.61 72.857 72.857 0 0 1 62.237 44.229l-67.065 28.468z" fill="#cddc39" fill-rule="evenodd"/>
  <path d="m289.43 322.61c13.993-23.661 42.522-41.672 69.95-39.851 27.428 1.8218 51.496 18.926 62.237 44.229l-69.769 31.833z" fill="#e64a19" fill-rule="evenodd"/>
  <path d="m290.59 319.97c13.993-23.661 41.362-39.039 68.79-37.217 27.428 1.8218 51.496 18.926 62.237 44.229l-67.244 29.182z" fill="#c0ca33" fill-rule="evenodd"/>
  <path d="m345.42 283.15c20.387-1.8554 43.139 4.6992 58.256 18.503s23.729 33.331 23.729 53.802l-73.741 0.12627z" fill="#afb42b" fill-rule="evenodd"/>
  <path d="m347.94 282.89c20.387-1.8554 40.614 4.9518 55.731 18.756s23.656 35.954 23.656 56.425l-72.531-0.98214z" fill="#ec407a" fill-rule="evenodd"/>
  <path d="m347.94 282.89a72.857 72.857 0 0 1 55.731 18.756 72.857 72.857 0 0 1 23.729 53.802h-72.857z" fill="#cddc39" fill-rule="evenodd"/>
  <circle cx="567.08" cy="330.45" r="45.962" fill="#673ab7" fill-opacity=".64246" fill-rule="evenodd"/>
  <circle cx="577.18" cy="386.01" r="45.962" fill="#f00" fill-opacity=".6648" fill-rule="evenodd"/>
  <circle cx="618.6" cy="354.7" r="45.962" fill="#4fc3f7" fill-opacity=".68156" fill-rule="evenodd"/>
  <rect x="290.65" y="543.09" width="149.65" height="14.142" ry="0" fill="#f44336" fill-opacity=".4581" fill-rule="evenodd"/>
  <rect x="262.44" y="543.09" width="13.941" height="14.142" ry="0" fill="#f44336" fill-opacity=".6648" fill-rule="evenodd"/>
  <rect x="290.65" y="543.09" width="103.23" height="14.142" ry="0" fill="#f44336" fill-opacity=".6648" fill-rule="evenodd"/>
  <rect x="290.65" y="570.95" width="149.65" height="14.142" ry="0" fill="#f44336" fill-opacity=".4581" fill-rule="evenodd"/>
  <rect x="262.44" y="570.95" width="13.941" height="14.142" ry="0" fill="#f44336" fill-opacity=".6648" fill-rule="evenodd"/>
  <rect x="290.65" y="570.95" width="129.65" height="14.142" ry="0" fill="#f44336" fill-opacity=".6648" fill-rule="evenodd"/>
  <rect x="290.65" y="598.8" width="149.65" height="14.142" ry="0" fill="#f44336" fill-opacity=".4581" fill-rule="evenodd"/>
  <rect x="262.44" y="598.8" width="13.941" height="14.142" ry="0" fill="#f44336" fill-opacity=".6648" fill-rule="evenodd"/>
  <rect x="290.65" y="598.8" width="80.369" height="14.142" ry="0" fill="#f44336" fill-opacity=".6648" fill-rule="evenodd"/>
  <rect x="290.65" y="627.38" width="149.65" height="14.142" ry="0" fill="#f44336" fill-opacity=".4581" fill-rule="evenodd"/>
  <rect x="262.44" y="627.38" width="13.941" height="14.142" ry="0" fill="#f44336" fill-opacity=".6648" fill-rule="evenodd"/>
  <rect x="290.65" y="627.38" width="136.8" height="14.142" ry="0" fill="#f44336" fill-opacity=".6648" fill-rule="evenodd"/>
  <rect x="262.44" y="543.09" width="13.941" height="14.142" ry="0" fill="#f44336" fill-opacity=".6648" fill-rule="evenodd"/>
  <rect x="262.44" y="570.95" width="13.941" height="14.142" ry="0" fill="#f44336" fill-opacity=".6648" fill-rule="evenodd"/>
  <rect x="262.44" y="598.8" width="13.941" height="14.142" ry="0" fill="#f44336" fill-opacity=".6648" fill-rule="evenodd"/>
  <rect x="262.44" y="627.38" width="13.941" height="14.142" ry="0" fill="#f44336" fill-opacity=".6648" fill-rule="evenodd"/>
  <rect x="262.44" y="543.09" width="13.941" height="14.142" ry="0" fill="#f44336" fill-opacity=".6648" fill-rule="evenodd"/>
  <rect x="262.44" y="570.95" width="13.941" height="14.142" ry="0" fill="#f44336" fill-opacity=".6648" fill-rule="evenodd"/>
  <rect x="262.44" y="598.8" width="13.941" height="14.142" ry="0" fill="#f44336" fill-opacity=".6648" fill-rule="evenodd"/>
  <rect x="262.44" y="627.38" width="13.941" height="14.142" ry="0" fill="#f44336" fill-opacity=".6648" fill-rule="evenodd"/>
  <rect x="290.65" y="543.09" width="103.23" height="14.142" ry="0" fill="#f44336" fill-opacity=".6648" fill-rule="evenodd"/>
  <rect x="290.65" y="570.95" width="129.65" height="14.142" ry="0" fill="#f44336" fill-opacity=".6648" fill-rule="evenodd"/>
  <rect x="290.65" y="598.8" width="80.369" height="14.142" ry="0" fill="#f44336" fill-opacity=".6648" fill-rule="evenodd"/>
  <rect x="290.65" y="627.38" width="136.8" height="14.142" ry="0" fill="#f44336" fill-opacity=".6648" fill-rule="evenodd"/>
  <path d="m401.16 46.55-21.199 36.717c4.666 5.1652 17.076 26.847 19.542 34.056l42.342-8.5e-4c-3.5522-12.984-32.215-63.021-40.685-70.773z" fill="#ffc107" fill-rule="evenodd"/>
  <path d="m398.14 45.014c-13.011-3.418-70.689-3.6144-81.634-0.15397l21.199 36.716c6.7974-1.4586 31.793-1.3667 39.264 0.10637l21.171-36.669z" fill="#689f38" fill-rule="evenodd"/>
  <path d="m442.02 120.7-42.397-9.2e-4c-2.1412 6.6243-14.711 28.21-19.723 33.951l21.171 36.668c9.4689-9.5698 38.47-59.406 40.949-70.618z" fill="#03a9f4" fill-rule="evenodd"/>
  <path d="m313.67 46.701c-9.4677 9.5673-38.469 59.408-40.948 70.621l42.396 1.7e-4c2.1397-6.6226 14.71-28.211 19.722-33.954l-21.169-36.667z" fill="#f44336" fill-rule="evenodd"/>
  <path d="m315.24 120.7-42.343 1e-4c3.5509 12.982 32.217 63.02 40.687 70.772l21.198-36.716c-4.6653-5.1647-17.074-26.844-19.542-34.056z" fill="#9c27b0" fill-rule="evenodd"/>
  <path d="m377.03 156.45c-6.7973 1.4586-31.792 1.3672-39.262-0.10557l-21.172 36.67c13.011 3.418 70.688 3.6137 81.633 0.15322l-21.199-36.718z" fill="#cddc39" fill-rule="evenodd"/>
  <rect x="635.26" y="33.696" width="27.677" height="159.35" ry="4.9726" fill="#3f51b5" fill-rule="evenodd"/>
  <rect transform="matrix(-.42069 .9072 .91318 .40755 0 0)" x="108.58" y="99.848" width="12.44" height="47.51" ry="3.5264" fill="#fff" fill-rule="evenodd"/>
  <path d="m43.284 140.77c-0.90624-0.055-1.8344 0.23266-2.5703 0.875l-35.988 31.412v16.096c0.46294-0.14317 0.90516-0.37635 1.293-0.71485l43.01-37.541c1.4718-1.2847 1.6066-3.4883 0.30078-4.9414l-3.6016-4.0078c-0.6529-0.72657-1.5371-1.1228-2.4434-1.1777z" fill="#fff" fill-rule="evenodd"/>
  <g transform="translate(-757.14 -11.429)" fill-rule="evenodd">
   <circle cx="801.35" cy="158.79" r="12.122" fill="#fff"/>
   <circle cx="801.35" cy="158.79" r="8.6335" fill="#03a9f4"/>
  </g>
  <circle cx="85.711" cy="163.41" r="12.122" fill="#fff" fill-rule="evenodd"/>
  <rect transform="matrix(.66839 .74381 -.75338 .65758 0 0)" x="173.56" y="-55.103" width="12.44" height="106.86" ry="3.5264" fill="#fff" fill-rule="evenodd"/>
  <circle cx="85.711" cy="163.41" r="8.6335" fill="#03a9f4" fill-rule="evenodd"/>
  <rect transform="matrix(-.65605 .75472 .76412 .64508 0 0)" x="-34.787" y="182.91" width="12.44" height="47.51" ry="3.5264" fill="#fff" fill-rule="evenodd"/>
  <circle cx="160.71" cy="97.696" r="12.122" fill="#fff" fill-rule="evenodd"/>
  <circle cx="160.71" cy="97.696" r="8.6335" fill="#03a9f4" fill-rule="evenodd"/>
  <path d="m227.82 29.529c-0.73521 0.37373-1.3527 0.98885-1.6914 1.8086l-38.113 92.242c-0.74605 1.8056 0.11549 3.8387 1.9316 4.5586l5.0078 1.9844c1.8162 0.71991 3.8789-0.15341 4.625-1.959l28.24-68.348v-30.287z" fill="#fff" fill-rule="evenodd"/>
  <circle cx="193.33" cy="125.37" r="12.122" fill="#fff" fill-rule="evenodd"/>
  <circle cx="193.33" cy="125.37" r="8.6335" fill="#03a9f4" fill-rule="evenodd"/>
  <circle cx="290.8" cy="81.45" r="12.122" fill="#fff" fill-rule="evenodd"/>
  <circle cx="290.8" cy="81.45" r="8.6335" fill="#f44336" fill-rule="evenodd"/>
  <circle cx="357.14" cy="43.582" r="12.122" fill="#fff" fill-rule="evenodd"/>
  <circle cx="357.14" cy="43.582" r="8.6335" fill="#689f38" fill-rule="evenodd"/>
  <circle cx="422.14" cy="79.296" r="12.122" fill="#fff" fill-rule="evenodd"/>
  <circle cx="422.14" cy="79.296" r="8.6335" fill="#ffc107" fill-rule="evenodd"/>
  <circle cx="424.29" cy="157.87" r="12.122" fill="#fff" fill-rule="evenodd"/>
  <circle cx="424.29" cy="157.87" r="8.6335" fill="#03a9f4" fill-rule="evenodd"/>
  <circle cx="357.14" cy="197.15" r="12.122" fill="#fff" fill-rule="evenodd"/>
  <circle cx="357.14" cy="197.15" r="8.6335" fill="#cddc39" fill-rule="evenodd"/>
  <circle cx="290.71" cy="157.87" r="12.122" fill="#fff" fill-rule="evenodd"/>
  <circle cx="290.71" cy="157.87" r="8.6335" fill="#9c27b0" fill-rule="evenodd"/>
  <path d="m590.19 522.13-14.24 29.049h28.479l-14.24-29.049z" fill="#fc4482" fill-rule="evenodd"/>
  <path d="m573.84 555.46-8.4883 17.316h49.658l-8.4882-17.316h-32.682z" fill="#ca3668" fill-rule="evenodd"/>
  <path d="m563.26 577.07-7.9522 16.221h69.766l-7.9522-16.221h-53.861z" fill="#96284d" fill-rule="evenodd"/>
  <path d="m553.2 597.57-8.1988 16.725h90.363l-8.1988-16.725h-73.965z" fill="#812140" fill-rule="evenodd"/>
  <path d="m542.9 618.58-7.7042 15.715h109.97l-7.704-15.715h-94.562z" fill="#6f1338" fill-rule="evenodd"/>
  <path d="m533.1 638.58-8.4173 17.17c-1.0372 2.0807-0.4275 3.8665 0.8764 3.8907h128.97c2.5383 0.17954 1.6014-2.9842 1.6014-2.9842l-8.8618-18.076z" fill="#510233" fill-rule="evenodd"/>
  <rect x="56.417" y="284.8" width="134.71" height="36.071" ry="2.1153" fill="#00bcd4" fill-rule="evenodd"/>
  <g transform="matrix(1 0 0 .99505 -757.14 -28.263)" fill="#333" fill-rule="evenodd">
   <path transform="matrix(.31516 .18196 -.18196 .31516 492.77 269.92)" d="m896.44-263.01c-2.762 4.7319-42.1 27.196-47.579 27.17-5.4789-0.0259-44.602-22.862-47.319-27.619-2.717-4.7579-2.5024-50.057 0.25951-54.789 2.762-4.7319 42.1-27.196 47.579-27.17 5.4789 0.0259 44.602 22.862 47.319 27.619 2.717 4.7579 2.5024 50.057-0.25951 54.789z"/>
   <rect x="785.81" y="314.8" width="37.922" height="36.071" ry="2.1153"/>
  </g>
  <path transform="matrix(.31516 .18196 -.18196 .31516 -268.41 239.92)" d="m896.44-263.01c-2.762 4.7319-42.1 27.196-47.579 27.17-5.4789-0.0259-44.602-22.862-47.319-27.619-2.717-4.7579-2.5024-50.057 0.25951-54.789 2.762-4.7319 42.1-27.196 47.579-27.17 5.4789 0.0259 44.602 22.862 47.319 27.619 2.717 4.7579 2.5024 50.057-0.25951 54.789z" fill="#00bcd4" fill-rule="evenodd"/>
  <rect x="24.631" y="284.8" width="37.922" height="36.071" ry="2.1153" fill="#00bcd4" fill-rule="evenodd"/>
  <path transform="matrix(.31516 .18196 -.18196 .31516 -139.84 239.92)" d="m896.44-263.01c-2.762 4.7319-42.1 27.196-47.579 27.17-5.4789-0.0259-44.602-22.862-47.319-27.619-2.717-4.7579-2.5024-50.057 0.25951-54.789 2.762-4.7319 42.1-27.196 47.579-27.17 5.4789 0.0259 44.602 22.862 47.319 27.619 2.717 4.7579 2.5024 50.057-0.25951 54.789z" fill="#00bcd4" fill-rule="evenodd"/>
  <rect x="56.417" y="336.94" width="134.71" height="36.071" ry="2.1153" fill="#f4511e" fill-rule="evenodd"/>
  <g transform="matrix(1 0 0 .99505 -757.14 23.88)" fill="#333" fill-rule="evenodd">
   <path transform="matrix(.31516 .18196 -.18196 .31516 492.77 269.92)" d="m896.44-263.01c-2.762 4.7319-42.1 27.196-47.579 27.17-5.4789-0.0259-44.602-22.862-47.319-27.619-2.717-4.7579-2.5024-50.057 0.25951-54.789 2.762-4.7319 42.1-27.196 47.579-27.17 5.4789 0.0259 44.602 22.862 47.319 27.619 2.717 4.7579 2.5024 50.057-0.25951 54.789z"/>
   <rect x="785.81" y="314.8" width="37.922" height="36.071" ry="2.1153"/>
  </g>
  <path transform="matrix(.31516 .18196 -.18196 .31516 -268.41 292.06)" d="m896.44-263.01c-2.762 4.7319-42.1 27.196-47.579 27.17-5.4789-0.0259-44.602-22.862-47.319-27.619-2.717-4.7579-2.5024-50.057 0.25951-54.789 2.762-4.7319 42.1-27.196 47.579-27.17 5.4789 0.0259 44.602 22.862 47.319 27.619 2.717 4.7579 2.5024 50.057-0.25951 54.789z" fill="#ff5722" fill-rule="evenodd"/>
  <rect x="24.631" y="336.94" width="37.922" height="36.071" ry="2.1153" fill="#ff5722" fill-rule="evenodd"/>
  <path transform="matrix(.31516 .18196 -.18196 .31516 -139.84 292.06)" d="m896.44-263.01c-2.762 4.7319-42.1 27.196-47.579 27.17-5.4789-0.0259-44.602-22.862-47.319-27.619-2.717-4.7579-2.5024-50.057 0.25951-54.789 2.762-4.7319 42.1-27.196 47.579-27.17 5.4789 0.0259 44.602 22.862 47.319 27.619 2.717 4.7579 2.5024 50.057-0.25951 54.789z" fill="#f4511e" fill-rule="evenodd"/>
  <rect x="56.417" y="386.22" width="134.71" height="36.071" ry="2.1153" fill="#009688" fill-rule="evenodd"/>
  <g transform="matrix(1 0 0 .99505 -757.14 73.166)" fill="#333" fill-rule="evenodd">
   <path transform="matrix(.31516 .18196 -.18196 .31516 492.77 269.92)" d="m896.44-263.01c-2.762 4.7319-42.1 27.196-47.579 27.17-5.4789-0.0259-44.602-22.862-47.319-27.619-2.717-4.7579-2.5024-50.057 0.25951-54.789 2.762-4.7319 42.1-27.196 47.579-27.17 5.4789 0.0259 44.602 22.862 47.319 27.619 2.717 4.7579 2.5024 50.057-0.25951 54.789z"/>
   <rect x="785.81" y="314.8" width="37.922" height="36.071" ry="2.1153"/>
  </g>
  <path transform="matrix(.31516 .18196 -.18196 .31516 -268.41 341.35)" d="m896.44-263.01c-2.762 4.7319-42.1 27.196-47.579 27.17-5.4789-0.0259-44.602-22.862-47.319-27.619-2.717-4.7579-2.5024-50.057 0.25951-54.789 2.762-4.7319 42.1-27.196 47.579-27.17 5.4789 0.0259 44.602 22.862 47.319 27.619 2.717 4.7579 2.5024 50.057-0.25951 54.789z" fill="#26a69a" fill-rule="evenodd"/>
  <rect x="24.631" y="386.22" width="37.922" height="36.071" ry="2.1153" fill="#26a69a" fill-rule="evenodd"/>
  <path transform="matrix(.31516 .18196 -.18196 .31516 -139.84 341.35)" d="m896.44-263.01c-2.762 4.7319-42.1 27.196-47.579 27.17-5.4789-0.0259-44.602-22.862-47.319-27.619-2.717-4.7579-2.5024-50.057 0.25951-54.789 2.762-4.7319 42.1-27.196 47.579-27.17 5.4789 0.0259 44.602 22.862 47.319 27.619 2.717 4.7579 2.5024 50.057-0.25951 54.789z" fill="#009688" fill-rule="evenodd"/>
  <circle cx="354.43" cy="355.46" r="28.537" fill="#fff" fill-rule="evenodd"/>
  <rect transform="matrix(.73551 .67751 .67751 -.73551 0 0)" x="425.65" y="-404.98" width="80.618" height="7.1788" ry="1.5434" fill="#fff" fill-rule="evenodd"/>
  <rect transform="matrix(.946 .32417 .32417 -.946 0 0)" x="229.69" y="-545.12" width="80.618" height="7.1788" ry="1.5434" fill="#fff" fill-rule="evenodd"/>
  <rect transform="matrix(.99123 -.13213 .13213 .99123 0 0)" x="-52.078" y="589.15" width="80.618" height="7.1788" ry="1.5434" fill="#fff" fill-rule="evenodd"/>
  <rect transform="matrix(.77182 -.63584 .63584 .77182 0 0)" x="-357.6" y="490.89" width="80.618" height="7.1788" ry="1.5434" fill="#fff" fill-rule="evenodd"/>
  <g transform="matrix(2.2917 0 0 2.2917 -1781.5 226.42)" fill-rule="evenodd">
   <circle cx="801.35" cy="158.79" r="12.122" fill="#fff"/>
   <circle cx="801.35" cy="158.79" r="8.6335" fill="#03a9f4"/>
  </g>
  <circle cx="165" cy="532.85" r="12.122" fill="#fff" fill-rule="evenodd"/>
  <circle cx="165" cy="532.85" r="8.6335" fill="#ff5722" fill-rule="evenodd"/>
  <circle cx="190.72" cy="558.17" r="12.122" fill="#fff" fill-rule="evenodd"/>
  <circle cx="190.72" cy="558.17" r="8.6335" fill="#3f51b5" fill-rule="evenodd"/>
  <circle cx="199.61" cy="611.46" r="12.122" fill="#fff" fill-rule="evenodd"/>
  <circle cx="199.61" cy="611.46" r="8.6335" fill="#009688" fill-rule="evenodd"/>
  <circle cx="173.33" cy="636.55" r="12.122" fill="#fff" fill-rule="evenodd"/>
  <circle cx="173.33" cy="636.55" r="8.6335" fill="#546e7a" fill-rule="evenodd"/>
  <circle cx="139.44" cy="660.2" r="12.122" fill="#fff" fill-rule="evenodd"/>
  <circle cx="139.44" cy="660.2" r="8.6335" fill="#ff8f00" fill-rule="evenodd"/>
  <rect x="95.425" y="529.22" width="59.366" height="7.1787" ry="1.5434" fill="#fff" fill-rule="evenodd"/>
  <rect x="97.605" y="555.39" width="82.9" height="7.1788" ry="1.5434" fill="#fff" fill-rule="evenodd"/>
  <rect x="113.9" y="608.56" width="74.489" height="7.1788" ry="1.5434" fill="#fff" fill-rule="evenodd"/>
  <rect x="96.922" y="633.33" width="66.191" height="7.1788" ry="1.5434" fill="#fff" fill-rule="evenodd"/>
  <rect x="96.604" y="656.24" width="32.619" height="7.1787" ry="1.5434" fill="#fff" fill-rule="evenodd"/>
  <rect transform="matrix(.68346 -.72999 .72999 .68346 0 0)" x="-373.57" y="431.79" width="52.552" height="7.1788" ry="1.5434" fill="#fff" fill-rule="evenodd"/>
  <rect transform="matrix(.62077 .78399 .78399 -.62077 0 0)" x="516.2" y="-336.31" width="64.33" height="7.1788" ry="1.5434" fill="#fff" fill-rule="evenodd"/>
  <circle cx="145.81" cy="584.37" r="12.122" fill="#fff" fill-rule="evenodd"/>
  <circle cx="145.81" cy="584.37" r="8.6335" fill="#d500f9" fill-rule="evenodd"/>
  <rect x="102.3" y="580.73" width="33.295" height="7.1787" ry="1.5434" fill="#fff" fill-rule="evenodd"/>
 </g>
</svg>
